<svg width="56" height="57" viewBox="0 0 56 57" fill="none" xmlns="http://www.w3.org/2000/svg">
<ellipse cx="28" cy="28.5" rx="28" ry="28.5" fill="#FF6347"/>
<path d="M7.53845 40.8679V35.8132C7.53845 34.4509 7.87948 33.2859 8.56153 32.3179C9.24358 31.35 10.1231 30.6151 11.2 30.1132C13.6051 29.0377 15.9115 28.2311 18.1192 27.6934C20.3269 27.1557 22.5436 26.8868 24.7692 26.8868C25.7026 26.8868 26.609 26.9316 27.4885 27.0212C28.3679 27.1109 29.2743 27.2453 30.2077 27.4245C30.0282 29.5038 30.4141 31.4665 31.3654 33.3127C32.3167 35.159 33.7077 36.6019 35.5385 37.6415V40.8679H7.53845ZM42 48.7726L38.7692 45.5462V35.5443C37.1897 35.0783 35.8974 34.191 34.8923 32.8826C33.8872 31.5741 33.3846 30.0594 33.3846 28.3387C33.3846 26.2594 34.1205 24.4849 35.5923 23.0151C37.0641 21.5453 38.841 20.8104 40.9231 20.8104C43.0051 20.8104 44.782 21.5453 46.2538 23.0151C47.7256 24.4849 48.4615 26.2594 48.4615 28.3387C48.4615 29.9519 48.0038 31.3859 47.0885 32.6406C46.1731 33.8953 45.0154 34.7915 43.6154 35.3293L46.3077 38.0179L43.0769 41.2443L46.3077 44.4708L42 48.7726ZM24.7692 22.5849C22.5077 22.5849 20.5961 21.8052 19.0346 20.2458C17.4731 18.6863 16.6923 16.7774 16.6923 14.5189C16.6923 12.2604 17.4731 10.3514 19.0346 8.79199C20.5961 7.23255 22.5077 6.45284 24.7692 6.45284C27.0308 6.45284 28.9423 7.23255 30.5038 8.79199C32.0654 10.3514 32.8461 12.2604 32.8461 14.5189C32.8461 16.7774 32.0654 18.6863 30.5038 20.2458C28.9423 21.8052 27.0308 22.5849 24.7692 22.5849ZM40.9231 29.4142C41.5333 29.4142 42.0449 29.208 42.4577 28.7958C42.8705 28.3835 43.0769 27.8726 43.0769 27.2632C43.0769 26.6538 42.8705 26.1429 42.4577 25.7307C42.0449 25.3184 41.5333 25.1123 40.9231 25.1123C40.3128 25.1123 39.8013 25.3184 39.3885 25.7307C38.9756 26.1429 38.7692 26.6538 38.7692 27.2632C38.7692 27.8726 38.9756 28.3835 39.3885 28.7958C39.8013 29.208 40.3128 29.4142 40.9231 29.4142Z" fill="#FFEBCD"/>
</svg>
